<?xml version="1.0" standalone="no"?>
<!DOCTYPE svg PUBLIC "-//W3C//DTD SVG 1.0//EN" "http://www.w3.org/TR/2001/REC-SVG-20010904/DTD/svg10.dtd">
<svg xmlns="http://www.w3.org/2000/svg" xmlns:xlink="http://www.w3.org/1999/xlink" id="body_1" width="2500" height="485">

<g transform="matrix(5 0 0 5 0 0)">
	<g>
        <path transform="matrix(3.125 0 0 3.129032 0 0)"  d="M8.12375 24.86167C 9.5975 24.86167 10.79125 23.666962 10.79125 22.193863C 10.79125 20.720764 9.5975 19.526054 8.12375 19.526054C 6.65 19.526054 5.455 20.720764 5.455 22.193863C 5.455 23.666962 6.65 24.86167 8.12375 24.86167z" stroke="#0AAD0A" stroke-width="1.28276" stroke-linecap="square" fill="none" />
        <path transform="matrix(3.125 0 0 3.129032 0 0)"  d="M6.97625 9.189393L23.115 9.189393" stroke="#0AAD0A" stroke-width="1.28276" stroke-linecap="square" fill="none" />
        <path transform="matrix(3.125 0 0 3.129032 0 0)"  d="M8.38875 12.416479L22.40875 12.416479" stroke="#0AAD0A" stroke-width="1.28276" stroke-linecap="square" fill="none" />
        <path transform="matrix(3.125 0 0 3.129032 0 0)"  d="M7.66125 19.524807L18.11375 19.524807C 19.25875 19.524807 20.27875 18.798244 20.65 17.714642L20.65 17.714642L24.95875 5.180815C 25.33125 4.097213 26.35 3.370651 27.495 3.370651L27.495 3.370651L30.62875 3.370651" stroke="#0AAD0A" stroke-width="1.28276" stroke-linecap="square" fill="none" />
        <path transform="matrix(3.125 0 0 3.129032 0 0)"  d="M8.12375 22.579615C 8.33625 22.579615 8.50875 22.40609 8.50875 22.193863C 8.50875 21.980389 8.33625 21.808111 8.12375 21.808111C 7.91125 21.808111 7.73875 21.980389 7.73875 22.193863C 7.73875 22.40609 7.91125 22.579615 8.12375 22.579615z" stroke="#0AAD0A" stroke-width="1.06897" stroke-linecap="square" fill="none" />
        <path transform="matrix(3.125 0 0 3.129032 0 0)"  d="M17.8225 24.86167C 19.295 24.86167 20.49 23.666962 20.49 22.193863C 20.49 20.720764 19.295 19.526054 17.8225 19.526054C 16.34875 19.526054 15.15375 20.720764 15.15375 22.193863C 15.15375 23.666962 16.34875 24.86167 17.8225 24.86167z" stroke="#0AAD0A" stroke-width="1.28276" stroke-linecap="square" fill="none" />
        <path transform="matrix(3.125 0 0 3.129032 0 0)"  d="M17.8225 22.579615C 18.035 22.579615 18.2075 22.40609 18.2075 22.193863C 18.2075 21.980389 18.035 21.808111 17.8225 21.808111C 17.61 21.808111 17.4375 21.980389 17.4375 22.193863C 17.4375 22.40609 17.61 22.579615 17.8225 22.579615z" stroke="#0AAD0A" stroke-width="1.06897" stroke-linecap="square" fill="none" />
        <path transform="matrix(3.125 0 0 3.129032 0 0)"  d="M21.1875 16.151659L7.1475 16.151659C 6.6775 16.151659 6.265 15.82583 6.13625 15.351442L6.13625 15.351442L3.755 6.628947C 3.63625 6.193259 3.9475 5.760068 4.37875 5.760068L4.37875 5.760068L22.3775 5.760068" stroke="#0AAD0A" stroke-width="1.28276" stroke-linecap="square" fill="none" />
        <path transform="matrix(3.125 0 0 3.129032 0 0)"  d="M1 26.527021C 1 26.527021 11.26 23.05525 25.10625 26.527021" stroke="#0AAD0A" stroke-width="1.28276" stroke-linecap="square" fill="none" />
	</g>
</g>
</svg>